<svg xmlns="http://www.w3.org/2000/svg" width="390.0" height="450.0"><rect x="0" y="0" width="100%" height="100%" fill="rgb(148, 84, 61)" /><polyline points="0, 37.5277674973, 21.6666666667, 0, 65.0, 0, 86.6666666667, 37.5277674973, 65.0, 75.0555349947, 21.6666666667, 75.0555349947, 0, 37.5277674973" opacity="0.0413333333333" stroke="#000000" transform="translate(-43.3333333333, 0.0)" fill="#ddd" /><polyline points="0, 37.5277674973, 21.6666666667, 0, 65.0, 0, 86.6666666667, 37.5277674973, 65.0, 75.0555349947, 21.6666666667, 75.0555349947, 0, 37.5277674973" opacity="0.0413333333333" stroke="#000000" transform="translate(346.666666667, 0.0)" fill="#ddd" /><polyline points="0, 37.5277674973, 21.6666666667, 0, 65.0, 0, 86.6666666667, 37.5277674973, 65.0, 75.0555349947, 21.6666666667, 75.0555349947, 0, 37.5277674973" opacity="0.0413333333333" stroke="#000000" transform="translate(-43.3333333333, 412.805442471)" fill="#ddd" /><polyline points="0, 37.5277674973, 21.6666666667, 0, 65.0, 0, 86.6666666667, 37.5277674973, 65.0, 75.0555349947, 21.6666666667, 75.0555349947, 0, 37.5277674973" opacity="0.0413333333333" stroke="#000000" transform="translate(346.666666667, 412.805442471)" fill="#ddd" /><polyline points="0, 37.5277674973, 21.6666666667, 0, 65.0, 0, 86.6666666667, 37.5277674973, 65.0, 75.0555349947, 21.6666666667, 75.0555349947, 0, 37.5277674973" opacity="0.0733333333333" stroke="#000000" transform="translate(21.6666666667, -37.5277674973)" fill="#222" /><polyline points="0, 37.5277674973, 21.6666666667, 0, 65.0, 0, 86.6666666667, 37.5277674973, 65.0, 75.0555349947, 21.6666666667, 75.0555349947, 0, 37.5277674973" opacity="0.0733333333333" stroke="#000000" transform="translate(21.6666666667, 450.333209968)" fill="#222" /><polyline points="0, 37.5277674973, 21.6666666667, 0, 65.0, 0, 86.6666666667, 37.5277674973, 65.0, 75.0555349947, 21.6666666667, 75.0555349947, 0, 37.5277674973" opacity="0.0306666666667" stroke="#000000" transform="translate(86.6666666667, 0.0)" fill="#222" /><polyline points="0, 37.5277674973, 21.6666666667, 0, 65.0, 0, 86.6666666667, 37.5277674973, 65.0, 75.0555349947, 21.6666666667, 75.0555349947, 0, 37.5277674973" opacity="0.0306666666667" stroke="#000000" transform="translate(86.6666666667, 412.805442471)" fill="#222" /><polyline points="0, 37.5277674973, 21.6666666667, 0, 65.0, 0, 86.6666666667, 37.5277674973, 65.0, 75.0555349947, 21.6666666667, 75.0555349947, 0, 37.5277674973" opacity="0.148" stroke="#000000" transform="translate(151.666666667, -37.5277674973)" fill="#ddd" /><polyline points="0, 37.5277674973, 21.6666666667, 0, 65.0, 0, 86.6666666667, 37.5277674973, 65.0, 75.0555349947, 21.6666666667, 75.0555349947, 0, 37.5277674973" opacity="0.148" stroke="#000000" transform="translate(151.666666667, 450.333209968)" fill="#ddd" /><polyline points="0, 37.5277674973, 21.6666666667, 0, 65.0, 0, 86.6666666667, 37.5277674973, 65.0, 75.0555349947, 21.6666666667, 75.0555349947, 0, 37.5277674973" opacity="0.158666666667" stroke="#000000" transform="translate(216.666666667, 0.0)" fill="#222" /><polyline points="0, 37.5277674973, 21.6666666667, 0, 65.0, 0, 86.6666666667, 37.5277674973, 65.0, 75.0555349947, 21.6666666667, 75.0555349947, 0, 37.5277674973" opacity="0.158666666667" stroke="#000000" transform="translate(216.666666667, 412.805442471)" fill="#222" /><polyline points="0, 37.5277674973, 21.6666666667, 0, 65.0, 0, 86.6666666667, 37.5277674973, 65.0, 75.0555349947, 21.6666666667, 75.0555349947, 0, 37.5277674973" opacity="0.126666666667" stroke="#000000" transform="translate(281.666666667, -37.5277674973)" fill="#ddd" /><polyline points="0, 37.5277674973, 21.6666666667, 0, 65.0, 0, 86.6666666667, 37.5277674973, 65.0, 75.0555349947, 21.6666666667, 75.0555349947, 0, 37.5277674973" opacity="0.126666666667" stroke="#000000" transform="translate(281.666666667, 450.333209968)" fill="#ddd" /><polyline points="0, 37.5277674973, 21.6666666667, 0, 65.0, 0, 86.6666666667, 37.5277674973, 65.0, 75.0555349947, 21.6666666667, 75.0555349947, 0, 37.5277674973" opacity="0.137333333333" stroke="#000000" transform="translate(-43.3333333333, 75.0555349947)" fill="#222" /><polyline points="0, 37.5277674973, 21.6666666667, 0, 65.0, 0, 86.6666666667, 37.5277674973, 65.0, 75.0555349947, 21.6666666667, 75.0555349947, 0, 37.5277674973" opacity="0.137333333333" stroke="#000000" transform="translate(346.666666667, 75.0555349947)" fill="#222" /><polyline points="0, 37.5277674973, 21.6666666667, 0, 65.0, 0, 86.6666666667, 37.5277674973, 65.0, 75.0555349947, 21.6666666667, 75.0555349947, 0, 37.5277674973" opacity="0.0946666666667" stroke="#000000" transform="translate(21.6666666667, 37.5277674973)" fill="#222" /><polyline points="0, 37.5277674973, 21.6666666667, 0, 65.0, 0, 86.6666666667, 37.5277674973, 65.0, 75.0555349947, 21.6666666667, 75.0555349947, 0, 37.5277674973" opacity="0.18" stroke="#000000" transform="translate(86.6666666667, 75.0555349947)" fill="#222" /><polyline points="0, 37.5277674973, 21.6666666667, 0, 65.0, 0, 86.6666666667, 37.5277674973, 65.0, 75.0555349947, 21.6666666667, 75.0555349947, 0, 37.5277674973" opacity="0.052" stroke="#000000" transform="translate(151.666666667, 37.5277674973)" fill="#222" /><polyline points="0, 37.5277674973, 21.6666666667, 0, 65.0, 0, 86.6666666667, 37.5277674973, 65.0, 75.0555349947, 21.6666666667, 75.0555349947, 0, 37.5277674973" opacity="0.052" stroke="#000000" transform="translate(216.666666667, 75.0555349947)" fill="#222" /><polyline points="0, 37.5277674973, 21.6666666667, 0, 65.0, 0, 86.6666666667, 37.5277674973, 65.0, 75.0555349947, 21.6666666667, 75.0555349947, 0, 37.5277674973" opacity="0.169333333333" stroke="#000000" transform="translate(281.666666667, 37.5277674973)" fill="#ddd" /><polyline points="0, 37.5277674973, 21.6666666667, 0, 65.0, 0, 86.6666666667, 37.5277674973, 65.0, 75.0555349947, 21.6666666667, 75.0555349947, 0, 37.5277674973" opacity="0.02" stroke="#000000" transform="translate(-43.3333333333, 150.111069989)" fill="#ddd" /><polyline points="0, 37.5277674973, 21.6666666667, 0, 65.0, 0, 86.6666666667, 37.5277674973, 65.0, 75.0555349947, 21.6666666667, 75.0555349947, 0, 37.5277674973" opacity="0.02" stroke="#000000" transform="translate(346.666666667, 150.111069989)" fill="#ddd" /><polyline points="0, 37.5277674973, 21.6666666667, 0, 65.0, 0, 86.6666666667, 37.5277674973, 65.0, 75.0555349947, 21.6666666667, 75.0555349947, 0, 37.5277674973" opacity="0.052" stroke="#000000" transform="translate(21.6666666667, 112.583302492)" fill="#222" /><polyline points="0, 37.5277674973, 21.6666666667, 0, 65.0, 0, 86.6666666667, 37.5277674973, 65.0, 75.0555349947, 21.6666666667, 75.0555349947, 0, 37.5277674973" opacity="0.0733333333333" stroke="#000000" transform="translate(86.6666666667, 150.111069989)" fill="#222" /><polyline points="0, 37.5277674973, 21.6666666667, 0, 65.0, 0, 86.6666666667, 37.5277674973, 65.0, 75.0555349947, 21.6666666667, 75.0555349947, 0, 37.5277674973" opacity="0.18" stroke="#000000" transform="translate(151.666666667, 112.583302492)" fill="#222" /><polyline points="0, 37.5277674973, 21.6666666667, 0, 65.0, 0, 86.6666666667, 37.5277674973, 65.0, 75.0555349947, 21.6666666667, 75.0555349947, 0, 37.5277674973" opacity="0.105333333333" stroke="#000000" transform="translate(216.666666667, 150.111069989)" fill="#ddd" /><polyline points="0, 37.5277674973, 21.6666666667, 0, 65.0, 0, 86.6666666667, 37.5277674973, 65.0, 75.0555349947, 21.6666666667, 75.0555349947, 0, 37.5277674973" opacity="0.0733333333333" stroke="#000000" transform="translate(281.666666667, 112.583302492)" fill="#222" /><polyline points="0, 37.5277674973, 21.6666666667, 0, 65.0, 0, 86.6666666667, 37.5277674973, 65.0, 75.0555349947, 21.6666666667, 75.0555349947, 0, 37.5277674973" opacity="0.02" stroke="#000000" transform="translate(-43.3333333333, 225.166604984)" fill="#ddd" /><polyline points="0, 37.5277674973, 21.6666666667, 0, 65.0, 0, 86.6666666667, 37.5277674973, 65.0, 75.0555349947, 21.6666666667, 75.0555349947, 0, 37.5277674973" opacity="0.02" stroke="#000000" transform="translate(346.666666667, 225.166604984)" fill="#ddd" /><polyline points="0, 37.5277674973, 21.6666666667, 0, 65.0, 0, 86.6666666667, 37.5277674973, 65.0, 75.0555349947, 21.6666666667, 75.0555349947, 0, 37.5277674973" opacity="0.084" stroke="#000000" transform="translate(21.6666666667, 187.638837487)" fill="#ddd" /><polyline points="0, 37.5277674973, 21.6666666667, 0, 65.0, 0, 86.6666666667, 37.5277674973, 65.0, 75.0555349947, 21.6666666667, 75.0555349947, 0, 37.5277674973" opacity="0.0946666666667" stroke="#000000" transform="translate(86.6666666667, 225.166604984)" fill="#222" /><polyline points="0, 37.5277674973, 21.6666666667, 0, 65.0, 0, 86.6666666667, 37.5277674973, 65.0, 75.0555349947, 21.6666666667, 75.0555349947, 0, 37.5277674973" opacity="0.084" stroke="#000000" transform="translate(151.666666667, 187.638837487)" fill="#ddd" /><polyline points="0, 37.5277674973, 21.6666666667, 0, 65.0, 0, 86.6666666667, 37.5277674973, 65.0, 75.0555349947, 21.6666666667, 75.0555349947, 0, 37.5277674973" opacity="0.0733333333333" stroke="#000000" transform="translate(216.666666667, 225.166604984)" fill="#222" /><polyline points="0, 37.5277674973, 21.6666666667, 0, 65.0, 0, 86.6666666667, 37.5277674973, 65.0, 75.0555349947, 21.6666666667, 75.0555349947, 0, 37.5277674973" opacity="0.18" stroke="#000000" transform="translate(281.666666667, 187.638837487)" fill="#222" /><polyline points="0, 37.5277674973, 21.6666666667, 0, 65.0, 0, 86.6666666667, 37.5277674973, 65.0, 75.0555349947, 21.6666666667, 75.0555349947, 0, 37.5277674973" opacity="0.052" stroke="#000000" transform="translate(-43.3333333333, 300.222139979)" fill="#222" /><polyline points="0, 37.5277674973, 21.6666666667, 0, 65.0, 0, 86.6666666667, 37.5277674973, 65.0, 75.0555349947, 21.6666666667, 75.0555349947, 0, 37.5277674973" opacity="0.052" stroke="#000000" transform="translate(346.666666667, 300.222139979)" fill="#222" /><polyline points="0, 37.5277674973, 21.6666666667, 0, 65.0, 0, 86.6666666667, 37.5277674973, 65.0, 75.0555349947, 21.6666666667, 75.0555349947, 0, 37.5277674973" opacity="0.105333333333" stroke="#000000" transform="translate(21.6666666667, 262.694372481)" fill="#ddd" /><polyline points="0, 37.5277674973, 21.6666666667, 0, 65.0, 0, 86.6666666667, 37.5277674973, 65.0, 75.0555349947, 21.6666666667, 75.0555349947, 0, 37.5277674973" opacity="0.0946666666667" stroke="#000000" transform="translate(86.6666666667, 300.222139979)" fill="#222" /><polyline points="0, 37.5277674973, 21.6666666667, 0, 65.0, 0, 86.6666666667, 37.5277674973, 65.0, 75.0555349947, 21.6666666667, 75.0555349947, 0, 37.5277674973" opacity="0.158666666667" stroke="#000000" transform="translate(151.666666667, 262.694372481)" fill="#222" /><polyline points="0, 37.5277674973, 21.6666666667, 0, 65.0, 0, 86.6666666667, 37.5277674973, 65.0, 75.0555349947, 21.6666666667, 75.0555349947, 0, 37.5277674973" opacity="0.0733333333333" stroke="#000000" transform="translate(216.666666667, 300.222139979)" fill="#222" /><polyline points="0, 37.5277674973, 21.6666666667, 0, 65.0, 0, 86.6666666667, 37.5277674973, 65.0, 75.0555349947, 21.6666666667, 75.0555349947, 0, 37.5277674973" opacity="0.148" stroke="#000000" transform="translate(281.666666667, 262.694372481)" fill="#ddd" /><polyline points="0, 37.5277674973, 21.6666666667, 0, 65.0, 0, 86.6666666667, 37.5277674973, 65.0, 75.0555349947, 21.6666666667, 75.0555349947, 0, 37.5277674973" opacity="0.084" stroke="#000000" transform="translate(-43.3333333333, 375.277674973)" fill="#ddd" /><polyline points="0, 37.5277674973, 21.6666666667, 0, 65.0, 0, 86.6666666667, 37.5277674973, 65.0, 75.0555349947, 21.6666666667, 75.0555349947, 0, 37.5277674973" opacity="0.084" stroke="#000000" transform="translate(346.666666667, 375.277674973)" fill="#ddd" /><polyline points="0, 37.5277674973, 21.6666666667, 0, 65.0, 0, 86.6666666667, 37.5277674973, 65.0, 75.0555349947, 21.6666666667, 75.0555349947, 0, 37.5277674973" opacity="0.0306666666667" stroke="#000000" transform="translate(21.6666666667, 337.749907476)" fill="#222" /><polyline points="0, 37.5277674973, 21.6666666667, 0, 65.0, 0, 86.6666666667, 37.5277674973, 65.0, 75.0555349947, 21.6666666667, 75.0555349947, 0, 37.5277674973" opacity="0.0306666666667" stroke="#000000" transform="translate(86.6666666667, 375.277674973)" fill="#222" /><polyline points="0, 37.5277674973, 21.6666666667, 0, 65.0, 0, 86.6666666667, 37.5277674973, 65.0, 75.0555349947, 21.6666666667, 75.0555349947, 0, 37.5277674973" opacity="0.0946666666667" stroke="#000000" transform="translate(151.666666667, 337.749907476)" fill="#222" /><polyline points="0, 37.5277674973, 21.6666666667, 0, 65.0, 0, 86.6666666667, 37.5277674973, 65.0, 75.0555349947, 21.6666666667, 75.0555349947, 0, 37.5277674973" opacity="0.0946666666667" stroke="#000000" transform="translate(216.666666667, 375.277674973)" fill="#222" /><polyline points="0, 37.5277674973, 21.6666666667, 0, 65.0, 0, 86.6666666667, 37.5277674973, 65.0, 75.0555349947, 21.6666666667, 75.0555349947, 0, 37.5277674973" opacity="0.0306666666667" stroke="#000000" transform="translate(281.666666667, 337.749907476)" fill="#222" /></svg>